<svg width="130" height="103" viewBox="0 0 130 103" fill="none" xmlns="http://www.w3.org/2000/svg">
<mask id="path-1-inside-1" fill="white">
<path fill-rule="evenodd" clip-rule="evenodd" d="M51 88.1132C71.4126 88.1132 89.0243 79.1777 97.1739 66.27C98.1956 67.8032 99.5275 69.2089 101.145 70.3846C103.788 72.3051 106.779 73.3102 109.661 73.4378C113.901 74.5351 118.315 74.8367 123.646 75.201L123.646 75.201C125.291 75.3134 127.023 75.4317 128.863 75.5812C128.052 73.5779 127.354 71.7181 126.695 69.9616L126.695 69.9615C125.04 65.5507 123.629 61.7914 121.285 58.0484C120.314 55.196 118.381 52.5023 115.606 50.4857C115.137 50.1455 114.658 49.834 114.171 49.551C115.128 49.1028 116.061 48.5488 116.952 47.8876C119.547 45.9611 121.374 43.4266 122.337 40.7307C124.618 37.039 126.193 32.941 128.096 27.9922L128.097 27.9921C128.684 26.4653 129.302 24.8575 129.982 23.1557C127.843 23.3187 125.874 23.4178 124.014 23.5114C119.344 23.7463 115.364 23.9465 111.126 25.0382C108.135 25.0951 105.014 26.1144 102.289 28.1373C100.042 29.8052 98.3707 31.9287 97.3375 34.2181C89.2618 21.1696 71.5503 12.1132 51 12.1132C22.8335 12.1132 0 29.1264 0 50.1132C0 71.1 22.8335 88.1132 51 88.1132Z"/>
</mask>
<path fill-rule="evenodd" clip-rule="evenodd" d="M51 88.1132C71.4126 88.1132 89.0243 79.1777 97.1739 66.27C98.1956 67.8032 99.5275 69.2089 101.145 70.3846C103.788 72.3051 106.779 73.3102 109.661 73.4378C113.901 74.5351 118.315 74.8367 123.646 75.201L123.646 75.201C125.291 75.3134 127.023 75.4317 128.863 75.5812C128.052 73.5779 127.354 71.7181 126.695 69.9616L126.695 69.9615C125.04 65.5507 123.629 61.7914 121.285 58.0484C120.314 55.196 118.381 52.5023 115.606 50.4857C115.137 50.1455 114.658 49.834 114.171 49.551C115.128 49.1028 116.061 48.5488 116.952 47.8876C119.547 45.9611 121.374 43.4266 122.337 40.7307C124.618 37.039 126.193 32.941 128.096 27.9922L128.097 27.9921C128.684 26.4653 129.302 24.8575 129.982 23.1557C127.843 23.3187 125.874 23.4178 124.014 23.5114C119.344 23.7463 115.364 23.9465 111.126 25.0382C108.135 25.0951 105.014 26.1144 102.289 28.1373C100.042 29.8052 98.3707 31.9287 97.3375 34.2181C89.2618 21.1696 71.5503 12.1132 51 12.1132C22.8335 12.1132 0 29.1264 0 50.1132C0 71.1 22.8335 88.1132 51 88.1132Z" fill="#CEAE5D"/>
<path d="M97.1739 66.27L101.335 63.4972L97.0607 57.0837L92.9461 63.6006L97.1739 66.27ZM101.145 70.3846L98.206 74.4294L98.206 74.4294L101.145 70.3846ZM109.661 73.4378L110.914 68.5972L110.406 68.4659L109.882 68.4427L109.661 73.4378ZM123.646 75.201L123.305 80.1893L123.32 80.1903L123.334 80.1912L123.646 75.201ZM123.646 75.201L123.987 70.2126L123.973 70.2116L123.958 70.2107L123.646 75.201ZM128.863 75.5812L128.459 80.5648L136.541 81.2211L133.498 73.7047L128.863 75.5812ZM126.695 69.9616L121.888 71.3352L121.943 71.5292L122.014 71.7182L126.695 69.9616ZM126.695 69.9615L131.503 68.5879L131.447 68.3938L131.376 68.2048L126.695 69.9615ZM121.285 58.0484L116.551 59.6586L116.738 60.2096L117.047 60.7028L121.285 58.0484ZM115.606 50.4857L112.666 54.5305L112.666 54.5305L115.606 50.4857ZM114.171 49.551L112.05 45.023L103.394 49.0769L111.661 53.8753L114.171 49.551ZM116.952 47.8876L113.971 43.873L113.971 43.873L116.952 47.8876ZM122.337 40.7307L118.083 38.1031L117.806 38.552L117.629 39.0489L122.337 40.7307ZM128.096 27.9922L123.454 26.1352L123.442 26.1663L123.43 26.1976L128.096 27.9922ZM128.097 27.9921L132.739 29.849L132.751 29.818L132.763 29.7867L128.097 27.9921ZM129.982 23.1557L134.625 25.0102L137.601 17.5602L129.601 18.1702L129.982 23.1557ZM124.014 23.5114L123.763 18.5177L123.763 18.5177L124.014 23.5114ZM111.126 25.0382L111.221 30.0373L111.807 30.0261L112.373 29.8801L111.126 25.0382ZM102.289 28.1373L99.3085 24.1227L99.3085 24.1227L102.289 28.1373ZM97.3375 34.2181L93.0859 36.8495L98.0304 44.8386L101.895 36.2748L97.3375 34.2181ZM92.9461 63.6006C85.922 74.7258 70.1298 83.1132 51 83.1132V93.1132C72.6955 93.1132 92.1267 83.6297 101.402 68.9393L92.9461 63.6006ZM104.085 66.3398C102.945 65.5115 102.027 64.536 101.335 63.4972L93.0132 69.0427C94.3643 71.0703 96.1102 72.9064 98.206 74.4294L104.085 66.3398ZM109.882 68.4427C107.999 68.3593 105.95 67.6951 104.085 66.3398L98.206 74.4294C101.627 76.9152 105.56 78.2611 109.44 78.4329L109.882 68.4427ZM123.987 70.2126C118.551 69.8412 114.621 69.5569 110.914 68.5972L108.408 78.2783C113.181 79.5134 118.08 79.8323 123.305 80.1893L123.987 70.2126ZM123.958 70.2107L123.958 70.2107L123.334 80.1912L123.334 80.1913L123.958 70.2107ZM129.268 70.5976C127.391 70.4451 125.628 70.3248 123.987 70.2126L123.306 80.1894C124.953 80.302 126.655 80.4182 128.459 80.5648L129.268 70.5976ZM122.014 71.7182C122.671 73.4694 123.39 75.3865 124.229 77.4577L133.498 73.7047C132.714 71.7693 132.038 69.9667 131.376 68.2049L122.014 71.7182ZM121.888 71.3351L121.888 71.3352L131.503 68.5879L131.503 68.5879L121.888 71.3351ZM117.047 60.7028C119.083 63.9523 120.334 67.2405 122.014 71.7181L131.376 68.2048C129.746 63.8609 128.176 59.6305 125.522 55.394L117.047 60.7028ZM112.666 54.5305C114.626 55.9542 115.921 57.8057 116.551 59.6586L126.018 56.4382C124.708 52.5862 122.136 49.0504 118.545 46.4409L112.666 54.5305ZM111.661 53.8753C112.001 54.0725 112.336 54.2907 112.666 54.5305L118.545 46.4409C117.938 46.0002 117.316 45.5954 116.681 45.2267L111.661 53.8753ZM116.291 54.079C117.551 53.489 118.772 52.7631 119.932 51.9022L113.971 43.873C113.349 44.3345 112.704 44.7166 112.05 45.023L116.291 54.079ZM119.932 51.9022C123.308 49.3955 125.745 46.0545 127.046 42.4125L117.629 39.0489C117.004 40.7986 115.785 42.5266 113.971 43.873L119.932 51.9022ZM126.591 43.3583C129.162 39.1956 130.899 34.6357 132.763 29.7868L123.43 26.1976C121.488 31.2462 120.073 34.8823 118.083 38.1031L126.591 43.3583ZM132.739 29.8492L132.739 29.849L123.454 26.1351L123.454 26.1352L132.739 29.8492ZM132.763 29.7867C133.352 28.2567 133.959 26.6778 134.625 25.0102L125.338 21.3011C124.645 23.0372 124.016 24.6739 123.43 26.1975L132.763 29.7867ZM129.601 18.1702C127.537 18.3276 125.629 18.4238 123.763 18.5177L124.266 28.5051C126.12 28.4118 128.15 28.3099 130.362 28.1412L129.601 18.1702ZM123.763 18.5177C119.165 18.749 114.684 18.9584 109.879 20.1963L112.373 29.8801C116.044 28.9347 119.523 28.7436 124.266 28.5051L123.763 18.5177ZM111.031 20.0391C106.98 20.1162 102.853 21.4912 99.3085 24.1227L105.269 32.1519C107.174 30.7377 109.291 30.074 111.221 30.0373L111.031 20.0391ZM99.3085 24.1227C96.3841 26.2937 94.1667 29.0889 92.7801 32.1615L101.895 36.2748C102.575 34.7686 103.7 33.3166 105.269 32.1519L99.3085 24.1227ZM51 17.1132C70.2629 17.1132 86.1332 25.6155 93.0859 36.8495L101.589 31.5868C92.3904 16.7238 72.8378 7.1132 51 7.1132V17.1132ZM5 50.1132C5 41.5606 9.64124 33.4247 17.925 27.2526C26.209 21.0801 37.8864 17.1132 51 17.1132V7.1132C35.9471 7.1132 22.1245 11.6529 11.9501 19.2337C1.7755 26.8148 -5 37.679 -5 50.1132H5ZM51 83.1132C37.8864 83.1132 26.209 79.1463 17.925 72.9738C9.64124 66.8017 5 58.6658 5 50.1132H-5C-5 62.5474 1.7755 73.4116 11.9501 80.9927C22.1245 88.5735 35.9471 93.1132 51 93.1132V83.1132Z" fill="#C67243" mask="url(#path-1-inside-1)"/>
<path fill-rule="evenodd" clip-rule="evenodd" d="M79.9476 95.9728C81.0603 96.0021 82.2319 96.0329 83.4766 96.0823C82.9861 94.7083 82.5681 93.431 82.1733 92.2247C80.8822 88.2797 79.8394 85.0935 77.3203 81.7646C76.4023 80.2789 75.1277 78.8881 73.5389 77.7336C68.4153 74.0103 61.9646 74.1531 59.1309 78.0526C56.2972 81.952 58.1535 88.1315 63.2771 91.8548C63.804 92.2377 64.345 92.5797 64.8947 92.881L64.8451 92.9492C69.6342 95.7013 73.9269 95.8143 79.9476 95.9728Z" fill="#C67243"/>
<path d="M32 2.11321C69.9955 -6.88661 91.1358 14.6732 98.5 32.6132L97.5 34.6132C77.6003 11.8523 49.525 7.06028 25 17.6132L32 2.11321Z" fill="#C67243"/>
<path d="M93.8651 48.6132C81.4247 63.886 71.4001 72.5938 53.463 74.2913C55.684 70.6254 58.3715 64.9849 58.8651 60.6132C58.368 56.2943 55.3371 53.9246 52.9141 49.9864C54.9119 46.4993 58.2108 44.5929 58.8651 40.6132C59.1434 36.1044 56.7419 28.7677 54.049 24.4006C72.2997 25.733 81.3478 33.9086 93.8651 48.6132Z" fill="#C67243"/>
<circle cx="30.5" cy="44.6132" r="6.5" fill="#272727"/>
</svg>
