<svg width="130" height="103" viewBox="0 0 130 103" fill="none" xmlns="http://www.w3.org/2000/svg">
<mask id="path-1-inside-1" fill="white">
<path fill-rule="evenodd" clip-rule="evenodd" d="M78.9816 88.1132C58.569 88.1132 40.9573 79.1777 32.8077 66.27C31.786 67.8032 30.4541 69.2089 28.8363 70.3846C26.1935 72.3051 23.2022 73.3102 20.3209 73.4378C16.0807 74.5351 11.6664 74.8367 6.33563 75.201L6.33527 75.201C4.69074 75.3134 2.959 75.4317 1.11826 75.5812C1.92937 73.5779 2.62727 71.7181 3.28641 69.9616L3.28643 69.9615C4.9416 65.5507 6.35229 61.7914 8.69704 58.0484C9.6673 55.196 11.601 52.5023 14.376 50.4857C14.8442 50.1455 15.3233 49.834 15.8108 49.551C14.8538 49.1028 13.9208 48.5488 13.0301 47.8876C10.4351 45.9611 8.60726 43.4266 7.6444 40.7307C5.36408 37.039 3.7882 32.941 1.88515 27.9922L1.8851 27.9921C1.29797 26.4653 0.679703 24.8575 0 23.1557C2.13837 23.3187 4.10754 23.4178 5.96732 23.5114C10.6374 23.7463 14.6177 23.9465 18.8555 25.0382C21.8463 25.0951 24.968 26.1144 27.6927 28.1373C29.9393 29.8052 31.611 31.9287 32.6441 34.2181C40.7199 21.1696 58.4313 12.1132 78.9816 12.1132C107.148 12.1132 129.982 29.1264 129.982 50.1132C129.982 71.1 107.148 88.1132 78.9816 88.1132Z"/>
</mask>
<path fill-rule="evenodd" clip-rule="evenodd" d="M78.9816 88.1132C58.569 88.1132 40.9573 79.1777 32.8077 66.27C31.786 67.8032 30.4541 69.2089 28.8363 70.3846C26.1935 72.3051 23.2022 73.3102 20.3209 73.4378C16.0807 74.5351 11.6664 74.8367 6.33563 75.201L6.33527 75.201C4.69074 75.3134 2.959 75.4317 1.11826 75.5812C1.92937 73.5779 2.62727 71.7181 3.28641 69.9616L3.28643 69.9615C4.9416 65.5507 6.35229 61.7914 8.69704 58.0484C9.6673 55.196 11.601 52.5023 14.376 50.4857C14.8442 50.1455 15.3233 49.834 15.8108 49.551C14.8538 49.1028 13.9208 48.5488 13.0301 47.8876C10.4351 45.9611 8.60726 43.4266 7.6444 40.7307C5.36408 37.039 3.7882 32.941 1.88515 27.9922L1.8851 27.9921C1.29797 26.4653 0.679703 24.8575 0 23.1557C2.13837 23.3187 4.10754 23.4178 5.96732 23.5114C10.6374 23.7463 14.6177 23.9465 18.8555 25.0382C21.8463 25.0951 24.968 26.1144 27.6927 28.1373C29.9393 29.8052 31.611 31.9287 32.6441 34.2181C40.7199 21.1696 58.4313 12.1132 78.9816 12.1132C107.148 12.1132 129.982 29.1264 129.982 50.1132C129.982 71.1 107.148 88.1132 78.9816 88.1132Z" fill="#CEAE5D"/>
<path d="M32.8077 66.27L28.6469 63.4972L32.9209 57.0837L37.0355 63.6006L32.8077 66.27ZM28.8363 70.3846L31.7757 74.4294L28.8363 70.3846ZM20.3209 73.4378L19.0681 68.5972L19.5758 68.4659L20.0997 68.4427L20.3209 73.4378ZM6.33563 75.201L6.67646 80.1893L6.66199 80.1903L6.64752 80.1912L6.33563 75.201ZM6.33527 75.201L5.99444 70.2126L6.0089 70.2116L6.02338 70.2107L6.33527 75.201ZM1.11826 75.5812L1.52298 80.5648L-6.55965 81.2211L-3.51627 73.7047L1.11826 75.5812ZM3.28641 69.9616L8.09402 71.3352L8.03858 71.5292L7.96767 71.7182L3.28641 69.9616ZM3.28643 69.9615L-1.52119 68.5879L-1.46574 68.3938L-1.39482 68.2048L3.28643 69.9615ZM8.69704 58.0484L13.4307 59.6586L13.2433 60.2096L12.9343 60.7028L8.69704 58.0484ZM14.376 50.4857L17.3153 54.5305L14.376 50.4857ZM15.8108 49.551L17.9315 45.023L26.5875 49.0769L18.3209 53.8753L15.8108 49.551ZM13.0301 47.8876L16.0106 43.873V43.873L13.0301 47.8876ZM7.6444 40.7307L11.8983 38.1031L12.1756 38.552L12.3531 39.0489L7.6444 40.7307ZM1.88515 27.9922L6.52753 26.1352L6.53996 26.1663L6.55197 26.1976L1.88515 27.9922ZM1.8851 27.9921L-2.75728 29.849L-2.76971 29.818L-2.78174 29.7867L1.8851 27.9921ZM0 23.1557L-4.64334 25.0102L-7.61887 17.5602L0.380157 18.1702L0 23.1557ZM5.96732 23.5114L6.21854 18.5177L5.96732 23.5114ZM18.8555 25.0382L18.7603 30.0373L18.1751 30.0261L17.6082 29.8801L18.8555 25.0382ZM27.6927 28.1373L30.6732 24.1227L30.6732 24.1227L27.6927 28.1373ZM32.6441 34.2181L36.8957 36.8495L31.9512 44.8386L28.0867 36.2748L32.6441 34.2181ZM37.0355 63.6006C44.0597 74.7258 59.8518 83.1132 78.9816 83.1132V93.1132C57.2862 93.1132 37.855 83.6297 28.5799 68.9393L37.0355 63.6006ZM25.897 66.3398C27.0368 65.5115 27.9547 64.536 28.6469 63.4972L36.9685 69.0427C35.6173 71.0703 33.8715 72.9064 31.7757 74.4294L25.897 66.3398ZM20.0997 68.4427C21.9825 68.3593 24.032 67.6951 25.897 66.3398L31.7757 74.4294C28.355 76.9152 24.4219 78.2611 20.542 78.4329L20.0997 68.4427ZM5.9948 70.2126C11.431 69.8412 15.3603 69.5569 19.0681 68.5972L21.5736 78.2783C16.8011 79.5134 11.9017 79.8323 6.67646 80.1893L5.9948 70.2126ZM6.02338 70.2107L6.02374 70.2107L6.64752 80.1912L6.64716 80.1913L6.02338 70.2107ZM0.713531 70.5976C2.59087 70.4451 4.35332 70.3248 5.99444 70.2126L6.67609 80.1894C5.02816 80.302 3.32713 80.4182 1.52298 80.5648L0.713531 70.5976ZM7.96767 71.7182C7.31053 73.4694 6.59138 75.3865 5.75278 77.4577L-3.51627 73.7047C-2.73265 71.7693 -2.05598 69.9667 -1.39485 68.2049L7.96767 71.7182ZM8.09405 71.3351L8.09402 71.3352L-1.52121 68.5879L-1.52119 68.5879L8.09405 71.3351ZM12.9343 60.7028C10.8987 63.9523 9.64793 67.2405 7.96768 71.7181L-1.39482 68.2048C0.23526 63.8609 1.80592 59.6305 4.45979 55.394L12.9343 60.7028ZM17.3153 54.5305C15.3561 55.9542 14.0609 57.8057 13.4307 59.6586L3.9634 56.4382C5.27368 52.5862 7.84581 49.0504 11.4367 46.4409L17.3153 54.5305ZM18.3209 53.8753C17.9811 54.0725 17.6453 54.2907 17.3153 54.5305L11.4367 46.4409C12.0431 46.0002 12.6656 45.5954 13.3008 45.2267L18.3209 53.8753ZM13.6902 54.079C12.4304 53.489 11.2093 52.7631 10.0497 51.9022L16.0106 43.873C16.6323 44.3345 17.2772 44.7166 17.9315 45.023L13.6902 54.079ZM10.0497 51.9022C6.67322 49.3955 4.23652 46.0545 2.93572 42.4125L12.3531 39.0489C12.978 40.7986 14.197 42.5266 16.0106 43.873L10.0497 51.9022ZM3.39048 43.3583C0.81926 39.1956 -0.917038 34.6357 -2.78168 29.7868L6.55197 26.1976C8.49344 31.2462 9.9089 34.8823 11.8983 38.1031L3.39048 43.3583ZM-2.75723 29.8492L-2.75728 29.849L6.52748 26.1351L6.52753 26.1352L-2.75723 29.8492ZM-2.78174 29.7867C-3.37009 28.2567 -3.97733 26.6778 -4.64334 25.0102L4.64335 21.3011C5.33672 23.0372 5.96604 24.6739 6.55193 26.1975L-2.78174 29.7867ZM0.380157 18.1702C2.44514 18.3276 4.35303 18.4238 6.21854 18.5177L5.71609 28.5051C3.86205 28.4118 1.8316 28.3099 -0.380157 28.1412L0.380157 18.1702ZM6.21854 18.5177C10.8162 18.749 15.2975 18.9584 20.1027 20.1963L17.6082 29.8801C13.938 28.9347 10.4586 28.7436 5.71609 28.5051L6.21854 18.5177ZM18.9506 20.0391C23.002 20.1162 27.1286 21.4912 30.6732 24.1227L24.7123 32.1519C22.8074 30.7376 20.6906 30.074 18.7603 30.0373L18.9506 20.0391ZM30.6732 24.1227C33.5975 26.2937 35.815 29.0889 37.2016 32.1615L28.0867 36.2748C27.407 34.7686 26.2812 33.3166 24.7123 32.1519L30.6732 24.1227ZM78.9816 17.1132C59.7188 17.1132 43.8485 25.6155 36.8957 36.8495L28.3925 31.5868C37.5913 16.7238 57.1439 7.1132 78.9816 7.1132V17.1132ZM124.982 50.1132C124.982 41.5606 120.34 33.4247 112.057 27.2526C103.773 21.0801 92.0953 17.1132 78.9816 17.1132V7.1132C94.0345 7.1132 107.857 11.6529 118.031 19.2337C128.206 26.8148 134.982 37.679 134.982 50.1132H124.982ZM78.9816 83.1132C92.0953 83.1132 103.773 79.1463 112.057 72.9739C120.34 66.8017 124.982 58.6658 124.982 50.1132H134.982C134.982 62.5474 128.206 73.4116 118.031 80.9927C107.857 88.5735 94.0345 93.1132 78.9816 93.1132V83.1132Z" fill="#C67243" mask="url(#path-1-inside-1)"/>
<path fill-rule="evenodd" clip-rule="evenodd" d="M50.034 95.9728C48.9214 96.0021 47.7497 96.0329 46.505 96.0823C46.9956 94.7083 47.4136 93.431 47.8084 92.2247C49.0995 88.2797 50.1422 85.0935 52.6613 81.7646C53.5793 80.2789 54.854 78.8881 56.4428 77.7336C61.5664 74.0103 68.017 74.1531 70.8508 78.0526C73.6845 81.952 71.8281 88.1315 66.7045 91.8548C66.1776 92.2377 65.6366 92.5797 65.087 92.881L65.1366 92.9492C60.3474 95.7013 56.0547 95.8143 50.034 95.9728Z" fill="#C67243"/>
<path d="M97.9816 2.11321C59.9862 -6.88661 38.8458 14.6732 31.4816 32.6132L32.4816 34.6132C52.3813 11.8523 80.4567 7.06028 104.982 17.6132L97.9816 2.11321Z" fill="#C67243"/>
<path d="M36.1166 48.6132C48.5569 63.886 58.5815 72.5938 76.5187 74.2913C74.2977 70.6254 71.6101 64.9849 71.1165 60.6132C71.6137 56.2943 74.6446 53.9246 77.0676 49.9864C75.0697 46.4993 71.7709 44.5929 71.1165 40.6132C70.8382 36.1044 73.2398 28.7677 75.9327 24.4006C57.6819 25.733 48.6339 33.9086 36.1166 48.6132Z" fill="#C67243"/>
<circle r="6.5" transform="matrix(-1 0 0 1 99.4816 44.6132)" fill="#272727"/>
</svg>
